<svg xmlns="http://www.w3.org/2000/svg" xmlns:xlink="http://www.w3.org/1999/xlink" viewBox="0 0 32 32"><defs><path id="a" d="M0 .05h3.504v3.5H0z"/><path id="c" d="M.161.016h4.828v3.576H.161z"/><path id="e" d="M0 .016h2.4v3.695H0z"/><path id="g" d="M.198.104h2.965v5.73H.198z"/><path id="i" d="M0 .07h7.55v11.54H0z"/></defs><g fill="none" fill-rule="evenodd"><path fill="#BABABD" d="M12.01 24.08a3.49 3.49 0 00-2.66-1.23 3.19 3.19 0 00-3.13 3.24c0 1.72 1.33 3.27 3.11 3.27 1.08 0 2.1-.53 2.78-1.36v1a4.17 4.17 0 01-2.75 1.04A3.84 3.84 0 015.5 26.1a3.85 3.85 0 013.89-3.92 4 4 0 012.63.93v.98zm9.17 2.03a3.9 3.9 0 01-3.97 3.93 3.935 3.935 0 010-7.87 3.9 3.9 0 013.97 3.94m-7.16.01a3.215 3.215 0 106.43 0 3.21 3.21 0 00-3.29-3.27 3.2 3.2 0 00-3.14 3.27m9.27-2.84h.03a2.1 2.1 0 011.9-1.11c.96 0 1.73.49 2.13 1.37a2.33 2.33 0 012.2-1.37c1.95 0 2.34 1.32 2.34 2.97v4.74h-.73v-4.84c0-1.16-.18-2.19-1.62-2.19-1.57 0-1.95 1.38-1.95 2.68v4.35h-.73v-4.66c0-1.17-.22-2.37-1.69-2.37-1.59 0-1.88 1.66-1.88 2.88v4.15h-.74v-7.55h.74v.95z"/><g transform="translate(0 24.336)"><mask id="b" fill="#fff"><use xlink:href="#a"/></mask><path fill="#E8378C" d="M3.5 1.8a1.75 1.75 0 11-3.5 0 1.75 1.75 0 013.5 0" mask="url(#b)"/></g><path fill="#504E4F" d="M12.134 5.673l1.025-2.404 1.017 2.404 1.011-2.211h.758l-1.769 3.591-1.017-2.322-1.025 2.322-1.769-3.591h.758zM16.99 4.03H17a1 1 0 011.5-.5l-.3.6a.59.59 0 00-.4-.13c-.72 0-.81.66-.81 1.23v1.7h-.67V3.46H17v.57zm5.3 1.18c0 1.04-.82 1.84-1.86 1.84s-1.86-.8-1.86-1.84c0-1.05.82-1.85 1.86-1.85s1.85.8 1.85 1.85m-3.04 0c0 .65.53 1.2 1.19 1.2a1.2 1.2 0 001.19-1.2A1.2 1.2 0 0020.42 4a1.2 1.2 0 00-1.18 1.2m7.24 0c0 1.05-.82 1.85-1.86 1.85s-1.85-.8-1.85-1.84c0-1.05.81-1.85 1.85-1.85s1.86.8 1.86 1.85m-3.05 0c0 .65.53 1.2 1.2 1.2a1.2 1.2 0 001.18-1.2A1.2 1.2 0 0024.62 4a1.2 1.2 0 00-1.19 1.2"/><g transform="translate(26.904 3.342)"><mask id="d" fill="#fff"><use xlink:href="#c"/></mask><path fill="#504E4F" d="M.83.56h.01c.2-.3.55-.54.93-.54.45 0 .78.23 1 .61.21-.37.63-.61 1.07-.61.91 0 1.15.7 1.15 1.5v2.07h-.67V1.63c0-.45-.06-1.02-.65-1.02-.7 0-.76.74-.76 1.28v1.7h-.67V1.75c0-.45-.02-1.14-.64-1.14C.9.6.83 1.34.83 1.89v1.7H.16V.12h.67v.44z" mask="url(#d)"/></g><g transform="translate(0 3.342)"><mask id="f" fill="#fff"><use xlink:href="#e"/></mask><path fill="#504E4F" d="M1.6.91a.51.51 0 00-.45-.3.35.35 0 00-.35.34c0 .3.4.44.8.62.42.19.81.44.81 1 0 .65-.55 1.14-1.2 1.14-.5 0-1.01-.29-1.2-.78l.57-.26c.14.26.31.45.63.45.29 0 .53-.2.53-.5 0-.18-.09-.27-.24-.37L.83 1.9c-.38-.2-.67-.4-.67-.88 0-.56.46-1 1.03-1 .42 0 .76.23.95.6l-.54.3z" mask="url(#f)"/></g><g transform="translate(2.854 1.1)"><mask id="h" fill="#fff"><use xlink:href="#g"/></mask><path fill="#504E4F" d="M.86.1v2.73h.02a1.2 1.2 0 011.05-.57c.98 0 1.23.66 1.23 1.5v2.07H2.5V3.85c0-.6-.08-1-.76-1-.86 0-.86.76-.86 1.39v1.6H.2V.1h.66z" mask="url(#h)"/></g><path fill="#504E4F" d="M10.34 5.2c0 1.05-.82 1.85-1.86 1.85s-1.86-.8-1.86-1.84c0-1.05.82-1.85 1.86-1.85s1.86.8 1.86 1.85m-3.05 0c0 .65.53 1.2 1.19 1.2a1.2 1.2 0 001.19-1.2A1.2 1.2 0 008.48 4a1.2 1.2 0 00-1.19 1.2m17.89 10.05c-.05 1.96 1.3 3.26 3.1 3.26A3.1 3.1 0 0031 16.76l.63.37a3.77 3.77 0 01-3.46 2.09c-2.3 0-3.75-1.86-3.75-4.05 0-2.16 1.49-4.01 3.75-4.01 2.34 0 3.73 1.87 3.71 4.1h-6.71zm5.96-.7a3.03 3.03 0 00-2.95-2.69 3.05 3.05 0 00-3.01 2.7h5.96zM20.296 17.695l2.746-6.37h.769l-3.532 8.142-3.549-8.142h.77z"/><g transform="translate(0 11.088)"><mask id="j" fill="#fff"><use xlink:href="#i"/></mask><path fill="#504E4F" d="M.75 1.63H.8A3.46 3.46 0 013.73.07c2.36 0 3.82 1.84 3.82 4.1 0 2.25-1.46 3.96-3.78 3.96a3.5 3.5 0 01-2.98-1.5H.75L.7 11.6H0V.24h.75v1.39zM.7 4.27c0 1.8 1.22 3.16 3.08 3.16C5.6 7.43 6.8 5.9 6.8 4.18c0-1.77-1.16-3.4-3.05-3.4C1.77.77.7 2.4.7 4.26z" mask="url(#j)"/></g><path fill="#504E4F" d="M10.12 12.33h.04c.3-.7.85-1.17 1.67-1.17.3 0 .55.06.82.18l-.4.67c-.19-.1-.34-.15-.54-.15-1.69 0-1.59 2.1-1.59 3.24v3.95h-.75v-7.73h.75v1zm5.26-3.58c0 .38-.3.69-.69.69a.68.68 0 01-.69-.69.69.69 0 011.37 0zm-1.07 10.3h.75v-7.72h-.75v7.72z"/></g></svg>